<svg xmlns="http://www.w3.org/2000/svg" width="117" height="28" viewBox="0 0 117 28" fill="none"><path d="M55.1172 4.9375L59.5 17.3125L63.8594 4.9375H68.4766V22H64.9492V17.3359L65.3008 9.28516L60.6953 22H58.2812L53.6875 9.29688L54.0391 17.3359V22H50.5234V4.9375H55.1172ZM77.1602 22.2344C75.3008 22.2344 73.7852 21.6641 72.6133 20.5234C71.4492 19.3828 70.8672 17.8633 70.8672 15.9648V15.6367C70.8672 14.3633 71.1133 13.2266 71.6055 12.2266C72.0977 11.2188 72.793 10.4453 73.6914 9.90625C74.5977 9.35938 75.6289 9.08594 76.7852 9.08594C78.5195 9.08594 79.8828 9.63281 80.875 10.7266C81.875 11.8203 82.375 13.3711 82.375 15.3789V16.7617H74.3008C74.4102 17.5898 74.7383 18.2539 75.2852 18.7539C75.8398 19.2539 76.5391 19.5039 77.3828 19.5039C78.6875 19.5039 79.707 19.0312 80.4414 18.0859L82.1055 19.9492C81.5977 20.668 80.9102 21.2305 80.043 21.6367C79.1758 22.0352 78.2148 22.2344 77.1602 22.2344ZM76.7734 11.8281C76.1016 11.8281 75.5547 12.0547 75.1328 12.5078C74.7188 12.9609 74.4531 13.6094 74.3359 14.4531H79.0469V14.1836C79.0312 13.4336 78.8281 12.8555 78.4375 12.4492C78.0469 12.0352 77.4922 11.8281 76.7734 11.8281ZM95.3008 22H91.9023V17.125H87.6953V22H84.3086V9.32031H87.6953V14.4062H91.9023V9.32031H95.3008V22ZM101.594 14.1836H103.422C103.672 12.6055 104.316 11.3633 105.355 10.457C106.402 9.54297 107.719 9.08594 109.305 9.08594C111.016 9.08594 112.41 9.60938 113.488 10.6562C114.574 11.7031 115.18 13.125 115.305 14.9219L115.328 15.7891C115.328 17.7344 114.785 19.2969 113.699 20.4766C112.613 21.6484 111.156 22.2344 109.328 22.2344C107.68 22.2344 106.328 21.7578 105.273 20.8047C104.227 19.8516 103.598 18.5586 103.387 16.9258H101.594V22H98.1953V9.32031H101.594V14.1836ZM106.703 15.7891C106.703 16.9922 106.93 17.9141 107.383 18.5547C107.836 19.1875 108.484 19.5039 109.328 19.5039C110.164 19.5039 110.809 19.1875 111.262 18.5547C111.715 17.9219 111.941 16.918 111.941 15.543C111.941 14.3633 111.711 13.4492 111.25 12.8008C110.789 12.1523 110.141 11.8281 109.305 11.8281C108.477 11.8281 107.836 12.1523 107.383 12.8008C106.93 13.4414 106.703 14.4375 106.703 15.7891Z" fill="white"></path><rect y="3" width="39" height="4" rx="2" fill="white"></rect><rect y="21" width="39" height="4" rx="2" fill="white"></rect><rect y="12" width="24" height="4" rx="2" fill="white"></rect><rect x="29" y="12" width="10" height="4" rx="2" fill="white"></rect></svg>